<svg width="420" height="250" viewBox="0 0 420 250" fill="none" xmlns="http://www.w3.org/2000/svg" xmlns:xlink="http://www.w3.org/1999/xlink">
<mask id="mask0" mask-type="alpha" maskUnits="userSpaceOnUse" x="0" y="0" width="420" height="250">
<path d="M290.045 249.3C223.236 248.1 150.127 245.699 114.022 243.499C57.8142 239.998 25.91 236.598 9.70783 232.397C-0.593546 229.797 0.00653395 231.097 0.00653395 210.493C0.00653395 155.184 4.60715 82.1717 10.6079 43.4652C14.8085 16.0606 19.6091 1.65818 24.9099 0.257943C28.0103 -0.542192 131.324 0.65801 173.43 1.95823C298.446 5.85889 382.257 12.76 410.161 21.5615C414.362 22.8617 418.362 24.6621 419.062 25.5622C420.062 26.7624 420.263 33.3635 419.662 56.7675C417.462 155.084 406.361 231.097 392.059 246.099L388.358 250L345.953 249.8C322.65 249.7 297.446 249.5 290.045 249.3Z" fill="#FF0099"/>
</mask>
<g mask="url(#mask0)">
<path d="M-24 18C-24 2.91505 -24 -4.62742 -19.3137 -9.31371C-14.6274 -14 -7.08494 -14 8 -14H412C427.085 -14 434.627 -14 439.314 -9.31371C444 -4.62742 444 2.91506 444 18V233C444 248.085 444 255.627 439.314 260.314C434.627 265 427.085 265 412 265H8C-7.08495 265 -14.6274 265 -19.3137 260.314C-24 255.627 -24 248.085 -24 233V18Z" fill="white"/>
<path d="M-24 18C-24 2.91505 -24 -4.62742 -19.3137 -9.31371C-14.6274 -14 -7.08494 -14 8 -14H412C427.085 -14 434.627 -14 439.314 -9.31371C444 -4.62742 444 2.91506 444 18V233C444 248.085 444 255.627 439.314 260.314C434.627 265 427.085 265 412 265H8C-7.08495 265 -14.6274 265 -19.3137 260.314C-24 255.627 -24 248.085 -24 233V18Z" fill="url(#pattern0)"/>
</g>
<defs>
<pattern id="pattern0" patternContentUnits="objectBoundingBox" width="1" height="1">
<use xlink:href="#image0" transform="translate(0 -0.0591398) scale(0.00119048 0.00199693)"/>
</pattern>
</defs>
</svg>
